<svg width="461" height="461" viewBox="0 0 461 461" fill="none" xmlns="http://www.w3.org/2000/svg">
<path d="M159.12 324.621C159.12 316.665 152.671 310.215 144.714 310.215C136.758 310.215 130.308 316.665 130.308 324.621H159.12ZM144.714 344.79H130.308C130.308 345.001 130.312 345.212 130.322 345.422L144.714 344.79ZM126.847 364.958L126.114 379.345C126.607 379.37 127.102 379.37 127.596 379.345L126.847 364.958ZM108.962 344.79L123.355 345.422C123.364 345.21 123.368 345.001 123.368 344.79H108.962ZM123.368 321.029C123.368 313.073 116.918 306.623 108.962 306.623C101.006 306.623 94.556 313.073 94.556 321.029H123.368ZM116.885 308.997C110.239 304.621 101.305 306.461 96.9297 313.107C92.5545 319.752 94.3946 328.685 101.04 333.061L116.885 308.997ZM355.237 333.061C361.883 328.685 363.723 319.752 359.347 313.107C354.972 306.461 346.038 304.621 339.392 308.997L355.237 333.061ZM100.825 332.917C107.391 337.412 116.356 335.731 120.85 329.166C125.344 322.6 123.665 313.636 117.099 309.141L100.825 332.917ZM97.0511 297.729L111.457 297.96V297.729H97.0511ZM111.457 195.925C111.457 187.969 105.007 181.519 97.0511 181.519C89.0946 181.519 82.6449 187.969 82.6449 195.925H111.457ZM325.988 324.621C325.988 316.665 319.538 310.215 311.582 310.215C303.626 310.215 297.176 316.665 297.176 324.621H325.988ZM311.582 344.79L325.923 346.15C325.967 345.696 325.988 345.243 325.988 344.79H311.582ZM347.335 344.79H332.928C332.928 345.243 332.949 345.696 332.992 346.15L347.335 344.79ZM361.741 321.029C361.741 313.073 355.291 306.623 347.335 306.623C339.377 306.623 332.928 313.073 332.928 321.029H361.741ZM339.196 309.141C332.631 313.636 330.952 322.6 335.447 329.166C339.939 335.731 348.906 337.412 355.471 332.917L339.196 309.141ZM359.246 297.729H344.837L344.841 297.96L359.246 297.729ZM373.652 195.925C373.652 187.969 367.202 181.519 359.246 181.519C351.288 181.519 344.839 187.969 344.839 195.925H373.652ZM140.744 242.986C132.787 242.986 126.338 249.436 126.338 257.392C126.338 265.348 132.787 271.798 140.744 271.798V242.986ZM155.314 271.798C163.271 271.798 169.72 265.348 169.72 257.392C169.72 249.436 163.271 242.986 155.314 242.986V271.798ZM300.981 242.986C293.025 242.986 286.575 249.436 286.575 257.392C286.575 265.348 293.025 271.798 300.981 271.798V242.986ZM315.552 271.798C323.509 271.798 329.959 265.348 329.959 257.392C329.959 249.436 323.509 242.986 315.552 242.986V271.798ZM344.839 195.925C344.839 203.881 351.288 210.331 359.246 210.331C367.202 210.331 373.652 203.881 373.652 195.925H344.839ZM355.5 89.3573L342.775 96.1125C342.828 96.2116 342.882 96.3103 342.936 96.4083L355.5 89.3573ZM335.404 76.8334L335.698 62.4303C335.6 62.4281 335.502 62.4272 335.404 62.4272V76.8334ZM120.892 76.8334V62.4272C120.794 62.4272 120.697 62.4281 120.599 62.4303L120.892 76.8334ZM100.797 89.3573L113.36 96.4081C113.415 96.3101 113.468 96.2116 113.521 96.1125L100.797 89.3573ZM82.6449 195.925C82.6449 203.881 89.0948 210.331 97.0511 210.331C105.008 210.331 111.457 203.881 111.457 195.925H82.6449ZM359.246 210.331C367.202 210.331 373.652 203.881 373.652 195.925C373.652 187.969 367.202 181.519 359.246 181.519V210.331ZM97.0511 181.519C89.0946 181.519 82.6449 187.969 82.6449 195.925C82.6449 203.881 89.0948 210.331 97.0511 210.331V181.519ZM130.308 324.621V344.79H159.12V324.621H130.308ZM130.322 345.422C130.456 348.478 128.213 350.462 126.099 350.571L127.596 379.345C146.182 378.377 159.905 362.338 159.107 344.158L130.322 345.422ZM127.582 350.571C125.466 350.464 123.22 348.48 123.355 345.422L94.5698 344.158C93.7711 362.352 107.514 378.397 126.114 379.345L127.582 350.571ZM123.368 344.79V321.029H94.556V344.79H123.368ZM101.04 333.061C106.922 336.933 113.799 339.018 120.855 339.027L120.892 310.215C119.5 310.213 118.111 309.804 116.885 308.997L101.04 333.061ZM120.855 339.027H335.404V310.215H120.892L120.855 339.027ZM335.404 339.027C342.461 339.018 349.355 336.933 355.237 333.061L339.392 308.997C338.166 309.804 336.797 310.213 335.404 310.215V339.027ZM117.099 309.141C113.6 306.746 111.383 302.566 111.457 297.96L82.6466 297.499C82.4207 311.569 89.1761 324.944 100.825 332.917L117.099 309.141ZM111.457 297.729V195.925H82.6449V297.729H111.457ZM297.176 324.621V344.79H325.988V324.621H297.176ZM297.239 343.43C296.079 355.667 301.769 367.698 312.239 374.369L327.721 350.07C326.582 349.344 325.762 347.863 325.923 346.15L297.239 343.43ZM312.239 374.369C322.765 381.076 336.151 381.076 346.678 374.369L331.194 350.07C330.112 350.76 328.802 350.76 327.721 350.07L312.239 374.369ZM346.678 374.369C357.146 367.698 362.836 355.667 361.676 343.43L332.992 346.15C333.155 347.863 332.333 349.344 331.194 350.07L346.678 374.369ZM361.741 344.79V321.029H332.928V344.79H361.741ZM355.471 332.917C367.119 324.944 373.875 311.569 373.65 297.499L344.841 297.96C344.914 302.566 342.696 306.746 339.196 309.141L355.471 332.917ZM373.652 297.729V195.925H344.839L344.837 297.729H373.652ZM140.744 271.798H155.314V242.986H140.744V271.798ZM300.981 271.798H315.552V242.986H300.981V271.798ZM373.652 195.925V103.725H344.839V195.925H373.652ZM373.652 103.725C373.65 96.2298 371.731 88.8434 368.062 82.3063L342.936 96.4083C344.173 98.6122 344.838 101.134 344.839 103.725H373.652ZM368.224 82.6021C361.814 70.5287 349.453 62.7103 335.698 62.4303L335.11 91.2366C338.165 91.2988 341.144 93.041 342.775 96.1125L368.224 82.6021ZM335.404 62.4272H120.892V91.2397H335.404V62.4272ZM120.599 62.4303C106.842 62.7103 94.4822 70.5287 88.0726 82.6021L113.521 96.1125C115.152 93.041 118.132 91.2988 121.185 91.2366L120.599 62.4303ZM88.2339 82.3065C84.5651 88.8435 82.6466 96.2267 82.6449 103.722L111.457 103.728C111.458 101.138 112.123 98.6122 113.36 96.4081L88.2339 82.3065ZM82.6449 103.722V195.925H111.457V103.728L82.6449 103.722ZM359.246 181.519H97.0511V210.331H359.246V181.519Z" fill="white"/>
<rect x="117.345" y="243.073" width="58.6727" height="33.5273" rx="16.7636" fill="#FF4081"/>
<rect x="276.6" y="243.073" width="58.6727" height="33.5273" rx="16.7636" fill="#FF4081"/>
</svg>
