<svg width="45" height="47" viewBox="0 0 45 47" fill="none" xmlns="http://www.w3.org/2000/svg">
<ellipse cx="22.5" cy="23.5" rx="22.5" ry="23.5" fill="#FF4081"/>
<path d="M20 15C20.291 15 20.5785 15.0635 20.8425 15.186C21.1064 15.3086 21.3405 15.4873 21.5282 15.7096C21.716 15.9319 21.853 16.1926 21.9296 16.4733C22.0063 16.754 22.0207 17.0481 21.972 17.335L23.945 17.665C24.0211 17.2144 24.0194 16.7541 23.94 16.304C24.3184 16.0671 24.7653 15.9635 25.2093 16.0099C25.6534 16.0563 26.0692 16.25 26.3905 16.5601C26.7117 16.8702 26.92 17.2789 26.9821 17.7211C27.0441 18.1632 26.9564 18.6135 26.733 19H16C15.8448 18.9999 15.6917 18.9636 15.553 18.894C15.4142 18.8245 15.2935 18.7236 15.2005 18.5993C15.1075 18.4751 15.0447 18.3309 15.0171 18.1781C14.9894 18.0254 14.9977 17.8683 15.0413 17.7193C15.0848 17.5704 15.1625 17.4336 15.2681 17.3198C15.3737 17.206 15.5043 17.1184 15.6496 17.0638C15.7949 17.0093 15.9509 16.9893 16.1053 17.0055C16.2596 17.0217 16.4081 17.0735 16.539 17.157C16.6737 17.2433 16.8271 17.296 16.9864 17.3107C17.1457 17.3254 17.3062 17.3017 17.4544 17.2416C17.6026 17.1814 17.7342 17.0866 17.8382 16.965C17.9422 16.8435 18.0155 16.6988 18.052 16.543C18.1551 16.1038 18.4036 15.7124 18.7572 15.4323C19.1109 15.1522 19.5488 14.9998 20 15ZM21.516 13.297C20.6123 12.9268 19.6043 12.8999 18.6822 13.2215C17.76 13.5432 16.9874 14.1911 16.51 15.043C15.868 14.9321 15.2073 15.0332 14.6279 15.331C14.0484 15.6288 13.5816 16.1071 13.2981 16.6937C13.0146 17.2803 12.9297 17.9432 13.0564 18.5823C13.183 19.2214 13.5142 19.8019 14 20.236V32C14 32.5305 14.2107 33.0392 14.5858 33.4143C14.9608 33.7893 15.4695 34 16 34H26C26.5304 34 27.0391 33.7893 27.4142 33.4143C27.7893 33.0392 28 32.5305 28 32H30C30.5304 32 31.0391 31.7893 31.4142 31.4143C31.7893 31.0392 32 30.5305 32 30V23C32 22.4696 31.7893 21.9609 31.4142 21.5858C31.0391 21.2108 30.5304 21 30 21H28V20.646C28.6216 19.9422 28.9758 19.0421 29.0005 18.1033C29.0252 17.1646 28.7189 16.247 28.1351 15.5115C27.5513 14.7759 26.7273 14.2692 25.8075 14.0801C24.8877 13.8909 23.9306 14.0315 23.104 14.477C22.6818 13.9569 22.1358 13.5512 21.516 13.297ZM28 30V23H30V30H28ZM18 23H20V30H18V23ZM22 23H24V30H22V23Z" fill="white"/>
</svg>
