<svg width="45" height="47" viewBox="0 0 45 47" fill="none" xmlns="http://www.w3.org/2000/svg">
<ellipse cx="22.5" cy="23.5" rx="22.5" ry="23.5" fill="#FF4081"/>
<path d="M15 23L16.5 18.5H27.5L29 23M27.5 28C27.1022 28 26.7206 27.842 26.4393 27.5607C26.158 27.2794 26 26.8978 26 26.5C26 26.1022 26.158 25.7206 26.4393 25.4393C26.7206 25.158 27.1022 25 27.5 25C27.8978 25 28.2794 25.158 28.5607 25.4393C28.842 25.7206 29 26.1022 29 26.5C29 26.8978 28.842 27.2794 28.5607 27.5607C28.2794 27.842 27.8978 28 27.5 28ZM16.5 28C16.1022 28 15.7206 27.842 15.4393 27.5607C15.158 27.2794 15 26.8978 15 26.5C15 26.1022 15.158 25.7206 15.4393 25.4393C15.7206 25.158 16.1022 25 16.5 25C16.8978 25 17.2794 25.158 17.5607 25.4393C17.842 25.7206 18 26.1022 18 26.5C18 26.8978 17.842 27.2794 17.5607 27.5607C17.2794 27.842 16.8978 28 16.5 28ZM28.92 18C28.72 17.42 28.16 17 27.5 17H16.5C15.84 17 15.28 17.42 15.08 18L13 24V32C13 32.2652 13.1054 32.5196 13.2929 32.7071C13.4804 32.8946 13.7348 33 14 33H15C15.2652 33 15.5196 32.8946 15.7071 32.7071C15.8946 32.5196 16 32.2652 16 32V31H28V32C28 32.2652 28.1054 32.5196 28.2929 32.7071C28.4804 32.8946 28.7348 33 29 33H30C30.2652 33 30.5196 32.8946 30.7071 32.7071C30.8946 32.5196 31 32.2652 31 32V24L28.92 18Z" fill="white"/>
</svg>
